# xmcd
#
# Track frame offsets:
#	150
#	19725
#	40225
#
# Disc length: 799 seconds
#
# Revision: 1
# Processed by: cddbd v1.5.1PL2 Copyright (c) Steve Scherf et al.
# Submitted via: audiograbber 1.83.01
#
DISCID=1b031d03
DTITLE=Brandy and Ray J - Another Day In Paradise
DYEAR=2001
DGENRE=R&B
TTITLE0=Another Day In Paradise (Stargate Remix)
TTITLE1=Another Day In Paradise (R&B Version)
TTITLE2=Another Day In Paradise (Stargate Classic Remix)
EXTD=
EXTT0=
EXTT1=
EXTT2=
PLAYORDER=
